<?xml version="1.0" standalone="no"?>
<!DOCTYPE svg PUBLIC "-//W3C//DTD SVG 20010904//EN"
 "http://www.w3.org/TR/2001/REC-SVG-20010904/DTD/svg10.dtd">
<svg version="1.0" xmlns="http://www.w3.org/2000/svg"
 width="512.000000pt" height="512.000000pt" viewBox="0 0 512.000000 512.000000"
 preserveAspectRatio="xMidYMid meet">
<metadata>
Created by potrace 1.11, written by Peter Selinger 2001-2013
</metadata>
<g transform="translate(0.000000,512.000000) scale(0.100000,-0.100000)"
fill="#000000" stroke="none">
<path d="M0 2560 l0 -2560 2560 0 2560 0 0 2560 0 2560 -2560 0 -2560 0 0
-2560z m2140 1184 c106 -16 182 -36 251 -66 l47 -20 -24 -76 c-13 -42 -31
-100 -40 -129 l-15 -51 -52 23 c-114 52 -216 69 -422 70 -177 0 -197 -2 -287
-27 -328 -92 -542 -324 -618 -670 -33 -152 -31 -411 5 -565 77 -330 289 -550
613 -634 198 -52 543 -28 726 50 42 18 45 19 50 3 3 -9 16 -66 31 -126 20 -86
23 -111 13 -117 -23 -14 -171 -58 -248 -73 -41 -8 -136 -20 -210 -27 -556 -47
-991 165 -1202 586 -190 377 -173 938 39 1299 79 135 226 289 354 372 266 172
613 235 989 178z m1822 16 c75 -5 169 -17 210 -25 84 -18 225 -63 233 -74 3
-7 -61 -235 -71 -249 -1 -2 -42 10 -91 27 -143 49 -254 64 -428 58 -172 -6
-274 -27 -392 -82 -241 -111 -390 -304 -466 -603 -19 -76 -22 -113 -21 -292 0
-190 2 -212 27 -305 87 -324 290 -532 595 -612 198 -51 487 -40 682 28 47 16
89 30 94 31 6 2 23 -53 39 -121 34 -142 40 -129 -74 -165 -106 -34 -217 -54
-381 -67 -645 -53 -1128 257 -1273 816 -72 280 -56 636 40 890 80 214 235 413
415 535 164 111 402 193 610 209 58 5 107 9 110 10 3 0 66 -4 142 -9z"/>
</g>
</svg>
